<?xml version="1.0" encoding="UTF-8"?>
<!DOCTYPE svg PUBLIC "-//W3C//DTD SVG 1.1//EN" "http://www.w3.org/Graphics/SVG/1.1/DTD/svg11.dtd">
<svg xmlns="http://www.w3.org/2000/svg" version="1.1" width="500px" height="500px" style="shape-rendering:geometricPrecision; text-rendering:geometricPrecision; image-rendering:optimizeQuality; fill-rule:evenodd; clip-rule:evenodd" xmlns:xlink="http://www.w3.org/1999/xlink">
<g><path style="opacity:1" fill="#fefefe" d="M -0.5,-0.5 C 166.167,-0.5 332.833,-0.5 499.5,-0.5C 499.5,166.167 499.5,332.833 499.5,499.5C 332.833,499.5 166.167,499.5 -0.5,499.5C -0.5,332.833 -0.5,166.167 -0.5,-0.5 Z"/></g>
<g><path style="opacity:1" fill="#e2972c" d="M 97.5,109.5 C 97.2895,118.2 97.6228,126.867 98.5,135.5C 98.8897,138.839 99.3897,142.173 100,145.5C 100.499,139.843 100.666,134.176 100.5,128.5C 100.853,122.379 101.853,116.379 103.5,110.5C 106.5,110.5 109.5,110.5 112.5,110.5C 112.334,117.508 112.5,124.508 113,131.5C 114.072,126.189 115.072,120.855 116,115.5C 117.509,113.081 119.675,112.081 122.5,112.5C 122.206,116.567 123.54,119.9 126.5,122.5C 126.334,132.172 126.5,141.839 127,151.5C 128.13,144.184 129.13,136.851 130,129.5C 130.122,127.563 130.955,126.23 132.5,125.5C 143.431,129.355 147.598,137.022 145,148.5C 143.21,152.327 142.044,156.327 141.5,160.5C 140.527,162.948 140.194,165.615 140.5,168.5C 122.753,167.073 105.086,165.073 87.5,162.5C 86.8272,146.836 86.6605,131.169 87,115.5C 87.3108,113.444 87.8108,111.444 88.5,109.5C 91.4465,108.679 94.4465,108.679 97.5,109.5 Z"/></g>
<g><path style="opacity:1" fill="#6c09de" d="M 178.5,136.5 C 174.195,139.33 169.528,141.496 164.5,143C 160.671,146.641 158.671,151.141 158.5,156.5C 157.566,155.432 157.232,154.099 157.5,152.5C 157.715,148.734 159.049,145.4 161.5,142.5C 160.112,139.921 158.612,139.921 157,142.5C 154.004,147.77 152.838,153.437 153.5,159.5C 154.791,159.737 155.791,159.404 156.5,158.5C 156.833,158.5 157.167,158.5 157.5,158.5C 157.693,162.566 157.36,166.566 156.5,170.5C 155.833,171.833 155.167,173.167 154.5,174.5C 151.397,176.704 148.063,177.037 144.5,175.5C 143.878,174.373 143.045,173.373 142,172.5C 141.501,168.514 141.334,164.514 141.5,160.5C 142.044,156.327 143.21,152.327 145,148.5C 147.598,137.022 143.431,129.355 132.5,125.5C 130.412,124.799 128.412,123.799 126.5,122.5C 123.54,119.9 122.206,116.567 122.5,112.5C 124.387,109.051 127.387,107.717 131.5,108.5C 147.345,109.878 163.011,112.378 178.5,116C 181.901,117.32 183.235,119.82 182.5,123.5C 182.546,128.329 181.213,132.663 178.5,136.5 Z"/></g>
<g><path style="opacity:1" fill="#9d76df" d="M 97.5,109.5 C 99.4352,110.15 101.435,110.483 103.5,110.5C 101.853,116.379 100.853,122.379 100.5,128.5C 99.8333,130.833 99.1667,133.167 98.5,135.5C 97.6228,126.867 97.2895,118.2 97.5,109.5 Z"/></g>
<g><path style="opacity:1" fill="#f5edfd" d="M 168.5,118.5 C 172.459,118.071 175.959,119.071 179,121.5C 179.991,123.447 180.325,125.447 180,127.5C 178.989,128.337 177.822,128.67 176.5,128.5C 176.66,126.801 176.494,125.134 176,123.5C 173.876,122.773 171.709,122.106 169.5,121.5C 168.614,120.675 168.281,119.675 168.5,118.5 Z"/></g>
<g><path style="opacity:1" fill="#9a73e4" d="M 126.5,122.5 C 128.412,123.799 130.412,124.799 132.5,125.5C 130.955,126.23 130.122,127.563 130,129.5C 129.13,136.851 128.13,144.184 127,151.5C 126.5,141.839 126.334,132.172 126.5,122.5 Z"/></g>
<g><path style="opacity:1" fill="#e2952d" d="M 178.5,136.5 C 177.063,148.248 174.063,159.581 169.5,170.5C 168.675,171.386 167.675,171.719 166.5,171.5C 163.061,171.747 159.728,171.414 156.5,170.5C 157.36,166.566 157.693,162.566 157.5,158.5C 158.338,158.158 158.672,157.492 158.5,156.5C 158.671,151.141 160.671,146.641 164.5,143C 169.528,141.496 174.195,139.33 178.5,136.5 Z"/></g>
<g><path style="opacity:1" fill="#b6819c" d="M 100.5,128.5 C 100.666,134.176 100.499,139.843 100,145.5C 99.3897,142.173 98.8897,138.839 98.5,135.5C 99.1667,133.167 99.8333,130.833 100.5,128.5 Z"/></g>
<g><path style="opacity:1" fill="#f7f0fd" d="M 157.5,152.5 C 156.539,154.265 156.205,156.265 156.5,158.5C 155.791,159.404 154.791,159.737 153.5,159.5C 152.838,153.437 154.004,147.77 157,142.5C 158.612,139.921 160.112,139.921 161.5,142.5C 159.049,145.4 157.715,148.734 157.5,152.5 Z"/></g>
<g><path style="opacity:1" fill="#b379dd" d="M 157.5,152.5 C 157.232,154.099 157.566,155.432 158.5,156.5C 158.672,157.492 158.338,158.158 157.5,158.5C 157.167,158.5 156.833,158.5 156.5,158.5C 156.205,156.265 156.539,154.265 157.5,152.5 Z"/></g>
<g><path style="opacity:1" fill="#7724e1" d="M 226.5,161.5 C 228.338,163.942 230.338,166.442 232.5,169C 233.5,169.333 234.5,169.667 235.5,170C 231.027,171.307 228.027,174.14 226.5,178.5C 225.598,173.931 222.931,170.931 218.5,169.5C 222.871,168.462 225.538,165.795 226.5,161.5 Z"/></g>
<g><path style="opacity:1" fill="#9973e6" d="M 141.5,160.5 C 141.334,164.514 141.501,168.514 142,172.5C 143.045,173.373 143.878,174.373 144.5,175.5C 141.15,175.665 137.817,175.498 134.5,175C 119.12,170.548 103.453,168.048 87.5,167.5C 87.5,165.833 87.5,164.167 87.5,162.5C 105.086,165.073 122.753,167.073 140.5,168.5C 140.194,165.615 140.527,162.948 141.5,160.5 Z"/></g>
<g><path style="opacity:1" fill="#eee2fb" d="M 151.5,166.5 C 152.5,166.5 153.5,166.5 154.5,166.5C 154.978,169.278 153.978,171.278 151.5,172.5C 150.5,172.167 149.833,171.5 149.5,170.5C 150.63,169.378 151.297,168.044 151.5,166.5 Z"/></g>
<g><path style="opacity:1" fill="#de9238" d="M 87.5,167.5 C 103.453,168.048 119.12,170.548 134.5,175C 137.817,175.498 141.15,175.665 144.5,175.5C 148.063,177.037 151.397,176.704 154.5,174.5C 158.434,173.64 162.434,173.307 166.5,173.5C 168.176,174.183 168.843,175.517 168.5,177.5C 156.573,179.287 144.573,179.787 132.5,179C 117.988,173.581 102.988,170.748 87.5,170.5C 87.5,169.5 87.5,168.5 87.5,167.5 Z"/></g>
<g><path style="opacity:1" fill="#9574ee" d="M 87.5,170.5 C 102.988,170.748 117.988,173.581 132.5,179C 144.573,179.787 156.573,179.287 168.5,177.5C 167.689,182.006 167.689,186.34 168.5,190.5C 167.528,191.399 166.862,192.566 166.5,194C 165.957,199.328 165.29,204.495 164.5,209.5C 163.848,208.275 162.681,207.608 161,207.5C 139.921,212.042 119.754,209.542 100.5,200C 96.9137,198.892 93.247,198.392 89.5,198.5C 88.0813,197.549 86.4147,197.216 84.5,197.5C 85.1727,188.464 86.1727,179.464 87.5,170.5 Z"/></g>
<g><path style="opacity:1" fill="#9974e6" d="M 156.5,170.5 C 159.728,171.414 163.061,171.747 166.5,171.5C 166.5,172.167 166.5,172.833 166.5,173.5C 162.434,173.307 158.434,173.64 154.5,174.5C 155.167,173.167 155.833,171.833 156.5,170.5 Z"/></g>
<g><path style="opacity:1" fill="#7e2fe3" d="M 382.5,173.5 C 384.288,173.215 385.955,173.548 387.5,174.5C 381.193,175.664 374.859,175.831 368.5,175C 373.351,174.826 378.018,174.326 382.5,173.5 Z"/></g>
<g><path style="opacity:1" fill="#893ee5" d="M 332.5,174.5 C 337.179,174.334 341.845,174.501 346.5,175C 342.581,175.459 338.748,176.292 335,177.5C 332.23,177.596 331.396,176.596 332.5,174.5 Z"/></g>
<g><path style="opacity:1" fill="#6c0ddf" d="M 400.5,262.5 C 399.325,262.281 398.325,262.614 397.5,263.5C 401.783,264.492 406.116,264.826 410.5,264.5C 408.26,265.264 405.927,266.098 403.5,267C 401.792,269.043 399.792,270.71 397.5,272C 389.668,272.033 382.001,272.7 374.5,274C 377.742,274.283 378.076,275.117 375.5,276.5C 383.013,277.214 390.513,277.881 398,278.5C 399.412,277.077 400.579,277.244 401.5,279C 404.167,279.333 406.833,279.667 409.5,280C 402.919,280.187 396.419,280.687 390,281.5C 388.249,280.191 386.749,280.525 385.5,282.5C 384.554,282.013 383.554,281.68 382.5,281.5C 378.326,283.062 373.993,283.895 369.5,284C 370.623,285.044 371.956,285.71 373.5,286C 370.472,287.14 368.305,286.306 367,283.5C 364.07,286.866 360.903,287.199 357.5,284.5C 350.55,285.298 343.55,285.798 336.5,286C 339.167,286.333 341.833,286.667 344.5,287C 345.672,287.419 346.672,288.085 347.5,289C 344.833,289.333 342.167,289.667 339.5,290C 346.02,290.686 352.52,290.52 359,289.5C 362.175,289.946 365.342,290.446 368.5,291C 357.823,291.389 347.156,291.889 336.5,292.5C 334.618,289.782 332.285,289.115 329.5,290.5C 325.774,290.823 322.107,290.489 318.5,289.5C 319.714,287.931 321.381,287.098 323.5,287C 316.815,286.882 310.148,287.382 303.5,288.5C 307.164,289.803 310.83,290.969 314.5,292C 308.871,293.197 303.204,293.53 297.5,293C 298.833,292.667 300.167,292.333 301.5,292C 299.298,290.978 296.965,290.478 294.5,290.5C 286.511,291.157 278.511,291.657 270.5,292C 273.553,292.179 276.553,292.679 279.5,293.5C 272.524,294.331 265.524,294.831 258.5,295C 254.885,295.732 251.552,297.065 248.5,299C 231.345,299.312 214.345,299.812 197.5,300.5C 193.966,302.048 190.133,302.714 186,302.5C 174.505,301.885 163.005,301.385 151.5,301C 150.167,300.333 150.167,299.667 151.5,299C 150.667,298.833 149.833,298.667 149,298.5C 143.476,299.809 137.976,299.809 132.5,298.5C 129.833,298.5 127.167,298.5 124.5,298.5C 125.097,291.299 126.431,284.299 128.5,277.5C 129.065,272.851 129.565,268.184 130,263.5C 147.179,259.349 154.179,248.682 151,231.5C 148.365,226.433 144.199,223.766 138.5,223.5C 137.737,222.732 136.737,222.232 135.5,222C 136.5,221.833 137.5,221.667 138.5,221.5C 144.147,222.582 149.814,223.082 155.5,223C 160.973,221.034 163.973,217.201 164.5,211.5C 164.5,210.833 164.5,210.167 164.5,209.5C 165.29,204.495 165.957,199.328 166.5,194C 166.862,192.566 167.528,191.399 168.5,190.5C 197.168,190.799 225.834,190.299 254.5,189C 268.681,188.301 282.181,185.134 295,179.5C 297.099,180.287 299.266,180.62 301.5,180.5C 302.524,181.138 303.524,181.805 304.5,182.5C 306.895,181.345 309.229,180.345 311.5,179.5C 327.74,178.907 344.074,177.907 360.5,176.5C 368.5,177 376.5,177.5 384.5,178C 385.167,179.333 386.167,180.333 387.5,181C 391.5,181.333 395.5,181.667 399.5,182C 398.5,182.333 397.5,182.667 396.5,183C 395.167,183.667 395.167,184.333 396.5,185C 400.283,185.012 403.617,186.179 406.5,188.5C 408.738,185.567 409.738,185.901 409.5,189.5C 414.508,188.408 419.508,188.408 424.5,189.5C 425.5,190.333 426.5,191.167 427.5,192C 426.5,193 425.5,194 424.5,195C 429.944,197.632 435.61,199.465 441.5,200.5C 440.754,201.736 440.421,203.07 440.5,204.5C 437.629,205.936 432.629,206.77 425.5,207C 427.285,208.163 429.285,208.83 431.5,209C 429.959,210.579 428.792,212.413 428,214.5C 426.471,213.271 425.304,211.771 424.5,210C 418.728,208.268 416.061,210.435 416.5,216.5C 417.319,222.123 418.652,227.623 420.5,233C 419.263,236.043 416.93,237.21 413.5,236.5C 413.126,227.583 409.459,220.417 402.5,215C 387.962,211.857 380.962,217.857 381.5,233C 380.806,244.279 385.14,252.946 394.5,259C 404.521,261.305 410.688,257.472 413,247.5C 413.498,244.183 413.665,240.85 413.5,237.5C 416.187,237.336 418.854,237.503 421.5,238C 422.858,241.073 424.025,244.24 425,247.5C 427.302,252.428 430.468,253.262 434.5,250C 440.196,249.743 445.863,249.243 451.5,248.5C 453.819,249.064 456.153,249.564 458.5,250C 450.758,250.194 443.091,251.027 435.5,252.5C 433.34,252.766 431.674,253.766 430.5,255.5C 427.326,252.808 424.326,252.975 421.5,256C 422.833,256.333 424.167,256.667 425.5,257C 419.461,257.337 413.461,258.003 407.5,259C 415.809,259.957 424.142,260.624 432.5,261C 421.854,261.98 411.187,262.48 400.5,262.5 Z"/></g>
<g><path style="opacity:1" fill="#c296f2" d="M 301.5,180.5 C 304.625,179.521 307.958,179.187 311.5,179.5C 309.229,180.345 306.895,181.345 304.5,182.5C 303.524,181.805 302.524,181.138 301.5,180.5 Z"/></g>
<g><path style="opacity:1" fill="#7824e1" d="M 416.5,183.5 C 412.833,182.833 409.167,182.167 405.5,181.5C 408.325,182.123 410.992,181.456 413.5,179.5C 418.695,181.2 424.028,182.367 429.5,183C 425.205,184.764 420.871,184.931 416.5,183.5 Z"/></g>
<g><path style="opacity:1" fill="#944de8" d="M 263.5,181.5 C 269.176,181.334 274.843,181.501 280.5,182C 274.483,183.503 268.483,184.003 262.5,183.5C 262.863,182.817 263.196,182.15 263.5,181.5 Z"/></g>
<g><path style="opacity:1" fill="#bd8ff1" d="M 405.5,181.5 C 409.167,182.167 412.833,182.833 416.5,183.5C 412.154,183.666 407.821,183.499 403.5,183C 404.044,182.283 404.711,181.783 405.5,181.5 Z"/></g>
<g><path style="opacity:1" fill="#ebdbfb" d="M 203.5,191.5 C 210.841,191.334 218.174,191.5 225.5,192C 218,192.833 210.5,193.667 203,194.5C 200.7,194.506 198.534,194.006 196.5,193C 199.036,192.814 201.369,192.314 203.5,191.5 Z"/></g>
<g><path style="opacity:1" fill="#e0cbf8" d="M 417.5,189.5 C 419.355,189.272 420.188,189.939 420,191.5C 418.506,192.747 417.006,192.747 415.5,191.5C 416.243,190.818 416.909,190.151 417.5,189.5 Z"/></g>
<g><path style="opacity:1" fill="#f2e7fc" d="M 416.5,193.5 C 417.376,193.369 418.043,193.702 418.5,194.5C 416.235,195.647 413.902,195.814 411.5,195C 413.382,194.802 415.048,194.302 416.5,193.5 Z"/></g>
<g><path style="opacity:1" fill="#df9433" d="M 89.5,198.5 C 93.247,198.392 96.9137,198.892 100.5,200C 119.754,209.542 139.921,212.042 161,207.5C 162.681,207.608 163.848,208.275 164.5,209.5C 164.5,210.167 164.5,210.833 164.5,211.5C 157.17,212.5 149.837,213.5 142.5,214.5C 139.5,214.5 136.5,214.5 133.5,214.5C 122.931,211.051 112.264,207.884 101.5,205C 95.4632,204.303 89.4632,204.47 83.5,205.5C 83.5,203.167 83.5,200.833 83.5,198.5C 85.5,198.5 87.5,198.5 89.5,198.5 Z"/></g>
<g><path style="opacity:1" fill="#cfacf5" d="M 410.5,201.5 C 412.337,201.639 412.67,202.306 411.5,203.5C 410.702,203.043 410.369,202.376 410.5,201.5 Z"/></g>
<g><path style="opacity:1" fill="#9776ef" d="M 133.5,214.5 C 129.811,217.029 126.978,220.362 125,224.5C 124.186,226.902 124.353,229.235 125.5,231.5C 127.94,229.891 129.107,227.557 129,224.5C 130.5,222.333 132.333,220.5 134.5,219C 137.146,218.503 139.813,218.336 142.5,218.5C 142.5,217.167 142.5,215.833 142.5,214.5C 149.837,213.5 157.17,212.5 164.5,211.5C 163.973,217.201 160.973,221.034 155.5,223C 149.814,223.082 144.147,222.582 138.5,221.5C 137.5,221.667 136.5,221.833 135.5,222C 136.737,222.232 137.737,222.732 138.5,223.5C 135.348,223.047 132.848,224.047 131,226.5C 130.501,230.821 130.334,235.154 130.5,239.5C 130.5,240.833 130.5,242.167 130.5,243.5C 129.686,253.699 128.686,264.032 127.5,274.5C 127.52,275.726 127.853,276.726 128.5,277.5C 126.431,284.299 125.097,291.299 124.5,298.5C 127.167,298.5 129.833,298.5 132.5,298.5C 130.052,299.473 127.385,299.806 124.5,299.5C 123.616,305.663 121.283,311.163 117.5,316C 111.226,318.967 106.392,317.467 103,311.5C 101.437,303.913 101.104,296.246 102,288.5C 104.256,267.129 107.756,245.962 112.5,225C 111.976,222.473 110.642,220.473 108.5,219C 101.638,218.478 94.9714,217.145 88.5,215C 85.6407,212.448 83.974,209.281 83.5,205.5C 89.4632,204.47 95.4632,204.303 101.5,205C 112.264,207.884 122.931,211.051 133.5,214.5 Z"/></g>
<g><path style="opacity:1" fill="#fcfafe" d="M 355.5,207.5 C 358.325,207.081 360.491,208.081 362,210.5C 363.014,214.099 363.847,217.765 364.5,221.5C 367.5,220.167 370.5,220.167 373.5,221.5C 374.631,223.074 374.798,224.741 374,226.5C 371.93,228.787 369.43,230.453 366.5,231.5C 364.57,239.803 365.57,247.636 369.5,255C 372.179,255.434 374.846,255.268 377.5,254.5C 382.416,256.956 382.749,260.123 378.5,264C 372.139,267.272 365.806,267.272 359.5,264C 358.206,261.913 357.039,259.746 356,257.5C 354.398,249.89 353.231,242.223 352.5,234.5C 349.813,234.664 347.146,234.497 344.5,234C 342.876,230.794 343.542,228.128 346.5,226C 348.167,225.167 349.833,224.333 351.5,223.5C 352.328,219.204 352.828,214.871 353,210.5C 354.045,209.627 354.878,208.627 355.5,207.5 Z"/></g>
<g><path style="opacity:1" fill="#721ae0" d="M 69.5,209.5 C 71.2627,211.885 72.7627,214.552 74,217.5C 75.9251,219.213 78.0918,220.547 80.5,221.5C 74.5444,222.956 70.7111,226.622 69,232.5C 67.9099,226.412 64.4099,222.579 58.5,221C 64.416,219.252 68.0827,215.419 69.5,209.5 Z"/></g>
<g><path style="opacity:1" fill="#fcf9fe" d="M 309.5,210.5 C 314.558,210.114 317.391,212.448 318,217.5C 318.757,230.952 320.424,244.286 323,257.5C 323.667,261.5 323.667,265.5 323,269.5C 319.587,272.256 316.42,271.923 313.5,268.5C 306.627,277.599 299.793,277.599 293,268.5C 286.284,256.947 285.951,245.281 292,233.5C 297.203,229.416 302.203,229.749 307,234.5C 306.78,227.845 306.78,221.178 307,214.5C 307.662,213.016 308.496,211.683 309.5,210.5 Z"/></g>
<g><path style="opacity:1" fill="#f6eefd" d="M 331.5,212.5 C 337.929,212.959 338.929,215.459 334.5,220C 332.231,220.758 330.064,220.591 328,219.5C 327.176,216.16 328.343,213.827 331.5,212.5 Z"/></g>
<g><path style="opacity:1" fill="#f6f3fd" d="M 133.5,214.5 C 136.5,214.5 139.5,214.5 142.5,214.5C 142.5,215.833 142.5,217.167 142.5,218.5C 139.813,218.336 137.146,218.503 134.5,219C 132.333,220.5 130.5,222.333 129,224.5C 129.107,227.557 127.94,229.891 125.5,231.5C 124.353,229.235 124.186,226.902 125,224.5C 126.978,220.362 129.811,217.029 133.5,214.5 Z"/></g>
<g><path style="opacity:1" fill="#8335e4" d="M 448.5,213.5 C 449.922,213.75 450.922,214.583 451.5,216C 449.699,216.317 449.366,216.984 450.5,218C 453.623,218.206 456.623,218.873 459.5,220C 453.287,219.935 447.287,220.768 441.5,222.5C 438.895,221.964 436.228,221.798 433.5,222C 436.544,221.641 436.878,220.974 434.5,220C 435.167,219.333 435.833,218.667 436.5,218C 439.5,217.667 442.5,217.333 445.5,217C 447.056,216.28 448.056,215.113 448.5,213.5 Z"/></g>
<g><path style="opacity:1" fill="#fcfafe" d="M 269.5,218.5 C 276.981,216.494 280.147,219.161 279,226.5C 274.051,231.149 268.385,234.816 262,237.5C 261.333,239.833 261.333,242.167 262,244.5C 266.35,241.271 271.184,240.104 276.5,241C 279.425,244.696 279.092,248.029 275.5,251C 271.66,253.421 267.66,255.588 263.5,257.5C 262.488,259.837 262.655,262.17 264,264.5C 269.335,260.942 275.169,259.442 281.5,260C 284.698,265.005 283.698,269.005 278.5,272C 259.741,285.086 249.908,280.253 249,257.5C 248.333,249.833 248.333,242.167 249,234.5C 249.187,230.961 250.354,227.795 252.5,225C 258.02,222.11 263.686,219.943 269.5,218.5 Z"/></g>
<g><path style="opacity:1" fill="#fbf8fe" d="M 138.5,223.5 C 144.199,223.766 148.365,226.433 151,231.5C 154.179,248.682 147.179,259.349 130,263.5C 129.565,268.184 129.065,272.851 128.5,277.5C 127.853,276.726 127.52,275.726 127.5,274.5C 128.686,264.032 129.686,253.699 130.5,243.5C 130.201,245.604 130.534,247.604 131.5,249.5C 137.053,247.848 139.386,244.348 138.5,239C 135.739,238.278 133.073,238.445 130.5,239.5C 130.334,235.154 130.501,230.821 131,226.5C 132.848,224.047 135.348,223.047 138.5,223.5 Z"/></g>
<g><path style="opacity:1" fill="#fcf9fe" d="M 220.5,263.5 C 220.5,258.5 220.5,253.5 220.5,248.5C 218.5,248.5 216.5,248.5 214.5,248.5C 213.504,248.586 212.671,248.252 212,247.5C 211.333,245.833 211.333,244.167 212,242.5C 214.651,239.924 217.818,238.591 221.5,238.5C 221.263,234.727 221.763,231.06 223,227.5C 225.992,221.404 229.325,221.07 233,226.5C 233.499,230.152 233.665,233.818 233.5,237.5C 236.187,237.336 238.854,237.503 241.5,238C 244.167,240.333 244.167,242.667 241.5,245C 238.794,246.548 235.96,247.714 233,248.5C 232.333,255.167 232.333,261.833 233,268.5C 233.465,269.931 234.299,271.097 235.5,272C 238.486,271.872 241.486,271.872 244.5,272C 247.665,277.575 245.998,281.241 239.5,283C 225.022,284.688 218.689,278.188 220.5,263.5 Z"/></g>
<g><path style="opacity:1" fill="#f9f5fe" d="M 161.5,225.5 C 163.857,225.337 166.19,225.503 168.5,226C 169.876,228.54 169.21,230.54 166.5,232C 159.561,233.574 157.894,231.407 161.5,225.5 Z"/></g>
<g><path style="opacity:1" fill="#fbf9fe" d="M 332.5,225.5 C 334.722,225.178 336.556,225.845 338,227.5C 342.932,239.694 344.599,252.361 343,265.5C 341.741,269.223 339.408,270.223 336,268.5C 330.277,255.775 328.277,242.442 330,228.5C 331.045,227.627 331.878,226.627 332.5,225.5 Z"/></g>
<g><path style="opacity:1" fill="#7520e1" d="M 394.5,225.5 C 396.39,225.297 397.89,225.963 399,227.5C 402.549,233.026 403.882,239.026 403,245.5C 401.522,248.993 399.522,249.326 397,246.5C 392.317,239.851 391.484,232.851 394.5,225.5 Z"/></g>
<g><path style="opacity:1" fill="#7f30e3" d="M 447.5,232.5 C 442.93,233.441 438.263,233.774 433.5,233.5C 433.636,230.98 433.302,228.314 432.5,225.5C 440.546,225.606 448.546,226.273 456.5,227.5C 451.226,227.747 445.892,227.913 440.5,228C 440.043,228.414 439.709,228.914 439.5,229.5C 441.766,230.314 444.1,230.814 446.5,231C 447.056,231.383 447.389,231.883 447.5,232.5 Z"/></g>
<g><path style="opacity:1" fill="#b27eee" d="M 447.5,232.5 C 448.952,233.302 450.618,233.802 452.5,234C 445.986,234.82 439.653,234.653 433.5,233.5C 438.263,233.774 442.93,233.441 447.5,232.5 Z"/></g>
<g><path style="opacity:1" fill="#fcfafe" d="M 180.5,236.5 C 184.554,236.544 187.221,238.544 188.5,242.5C 202.667,233.255 210.001,237.255 210.5,254.5C 210.159,262.72 208.659,270.72 206,278.5C 203.668,284.008 200.668,284.675 197,280.5C 196.343,272.485 196.509,264.485 197.5,256.5C 195.745,247.244 193.245,247.244 190,256.5C 189.897,264.244 189.231,271.911 188,279.5C 187.424,281.852 185.924,282.852 183.5,282.5C 182.006,282.291 180.839,281.624 180,280.5C 179.333,278.5 178.667,276.5 178,274.5C 177.333,263.167 177.333,251.833 178,240.5C 178.662,239.016 179.496,237.683 180.5,236.5 Z"/></g>
<g><path style="opacity:1" fill="#751fe1" d="M 130.5,243.5 C 130.5,242.167 130.5,240.833 130.5,239.5C 133.073,238.445 135.739,238.278 138.5,239C 139.386,244.348 137.053,247.848 131.5,249.5C 130.534,247.604 130.201,245.604 130.5,243.5 Z"/></g>
<g><path style="opacity:1" fill="#fbf9fe" d="M 161.5,238.5 C 164.547,237.855 166.713,238.855 168,241.5C 169.892,252.802 169.892,264.135 168,275.5C 167.05,278.78 165.05,281.113 162,282.5C 159.575,281.739 158.242,280.072 158,277.5C 156.474,267.885 156.141,258.219 157,248.5C 157.703,244.764 159.203,241.431 161.5,238.5 Z"/></g>
<g><path style="opacity:1" fill="#7117e0" d="M 435.5,242.5 C 437.857,242.337 440.19,242.503 442.5,243C 439.816,245.145 437.483,244.978 435.5,242.5 Z"/></g>
<g><path style="opacity:1" fill="#7118e0" d="M 300.5,243.5 C 307.244,244.777 310.577,248.944 310.5,256C 306.124,264.697 302.29,264.531 299,255.5C 297.994,251.198 298.494,247.198 300.5,243.5 Z"/></g>
<g><path style="opacity:1" fill="#e1cbf9" d="M 415.5,253.5 C 417.975,253.747 417.975,254.413 415.5,255.5C 414.537,255.03 414.537,254.363 415.5,253.5 Z"/></g>
<g><path style="opacity:1" fill="#b27dee" d="M 214.5,248.5 C 216.5,248.5 218.5,248.5 220.5,248.5C 220.5,253.5 220.5,258.5 220.5,263.5C 219.514,259.03 219.181,254.363 219.5,249.5C 217.585,249.784 215.919,249.451 214.5,248.5 Z"/></g>
<g><path style="opacity:1" fill="#bd8ff1" d="M 400.5,262.5 C 403.833,263.167 407.167,263.833 410.5,264.5C 406.116,264.826 401.783,264.492 397.5,263.5C 398.325,262.614 399.325,262.281 400.5,262.5 Z"/></g>
<g><path style="opacity:1" fill="#741ce1" d="M 406.5,268.5 C 408.801,269.06 411.134,269.56 413.5,270C 410.167,270.667 406.833,270.667 403.5,270C 404.737,269.768 405.737,269.268 406.5,268.5 Z"/></g>
<g><path style="opacity:1" fill="#d9bdf7" d="M 302.5,280.5 C 304.337,280.639 304.67,281.306 303.5,282.5C 302.702,282.043 302.369,281.376 302.5,280.5 Z"/></g>
<g><path style="opacity:1" fill="#f0e4fc" d="M 306.5,282.5 C 309.649,282.211 312.649,282.711 315.5,284C 310.995,285.962 306.328,286.629 301.5,286C 303.59,285.331 305.257,284.164 306.5,282.5 Z"/></g>
<g><path style="opacity:1" fill="#7016e0" d="M 70.5,283.5 C 72.768,287.856 75.4346,292.023 78.5,296C 81.7165,297.637 85.0498,298.97 88.5,300C 79.4483,302.889 74.1149,309.056 72.5,318.5C 69.8409,309.34 63.8409,303.84 54.5,302C 63.5807,299.085 68.914,292.919 70.5,283.5 Z"/></g>
<g><path style="opacity:1" fill="#ebddfb" d="M 274.5,287.5 C 279.511,287.334 284.511,287.501 289.5,288C 284.187,288.999 278.854,289.332 273.5,289C 274.056,288.617 274.389,288.117 274.5,287.5 Z"/></g>
<g><path style="opacity:1" fill="#b785ef" d="M 336.5,292.5 C 331.489,292.666 326.489,292.499 321.5,292C 324.365,291.817 327.031,291.317 329.5,290.5C 332.285,289.115 334.618,289.782 336.5,292.5 Z"/></g>
<g><path style="opacity:1" fill="#954ee7" d="M 372.5,290.5 C 374.337,290.639 374.67,291.306 373.5,292.5C 372.702,292.043 372.369,291.376 372.5,290.5 Z"/></g>
<g><path style="opacity:1" fill="#ae74ed" d="M 126.5,295.5 C 129.247,295.187 131.914,295.52 134.5,296.5C 133.167,296.833 131.833,297.167 130.5,297.5C 128.667,297.415 127.334,296.748 126.5,295.5 Z"/></g>
<g><path style="opacity:1" fill="#8c44e6" d="M 350.5,297.5 C 351.966,298.347 352.8,299.68 353,301.5C 354.012,307.796 354.512,314.129 354.5,320.5C 353.5,320.5 352.5,320.5 351.5,320.5C 351.32,312.825 350.986,305.158 350.5,297.5 Z"/></g>
<g><path style="opacity:1" fill="#f5f2fd" d="M 117.5,299.5 C 119.635,299.147 120.968,299.98 121.5,302C 120.538,308.464 116.871,311.964 110.5,312.5C 110.351,311.448 110.517,310.448 111,309.5C 115.406,307.599 117.573,304.265 117.5,299.5 Z"/></g>
<g><path style="opacity:1" fill="#dcc2f7" d="M 197.5,300.5 C 195.25,300.819 193.25,300.319 191.5,299C 194.981,298.495 198.647,298.162 202.5,298C 200.347,298.099 198.681,298.933 197.5,300.5 Z"/></g>
<g><path style="opacity:1" fill="#8235e4" d="M 298.5,302.5 C 300.442,306.026 301.609,310.026 302,314.5C 302.827,318.541 302.66,322.541 301.5,326.5C 299.104,324.933 296.437,324.1 293.5,324C 290.682,319.11 292.016,315.61 297.5,313.5C 298.489,309.893 298.823,306.226 298.5,302.5 Z"/></g>
<g><path style="opacity:1" fill="#7a26e2" d="M 371.5,304.5 C 374.784,304.637 378.118,304.971 381.5,305.5C 379.314,306.221 377.147,306.887 375,307.5C 375.066,310.578 374.899,313.578 374.5,316.5C 372.492,312.806 371.492,308.806 371.5,304.5 Z"/></g>
<g><path style="opacity:1" fill="#8234e3" d="M 262.5,305.5 C 263.496,305.414 264.329,305.748 265,306.5C 266.322,314.167 266.489,321.833 265.5,329.5C 263.077,327.914 260.41,326.914 257.5,326.5C 256.304,325.441 255.637,324.107 255.5,322.5C 256.774,319.391 258.94,317.058 262,315.5C 262.498,312.183 262.665,308.85 262.5,305.5 Z"/></g>
<g><path style="opacity:1" fill="#8234e3" d="M 362.5,304.5 C 368,303.831 370.167,306.165 369,311.5C 365.579,315.928 361.579,316.928 357,314.5C 356.333,312.5 356.333,310.5 357,308.5C 359.015,307.303 360.849,305.97 362.5,304.5 Z"/></g>
<g><path style="opacity:1" fill="#faf7fe" d="M 361.5,307.5 C 363.5,307.5 365.5,307.5 367.5,307.5C 367.22,311.113 365.22,313.113 361.5,313.5C 360,313.547 359,312.881 358.5,311.5C 359.524,310.148 360.524,308.815 361.5,307.5 Z"/></g>
<g><path style="opacity:1" fill="#721be0" d="M 152.5,307.5 C 154.108,312.025 157.108,315.359 161.5,317.5C 156.874,318.959 153.707,321.959 152,326.5C 150.932,321.765 148.099,318.598 143.5,317C 148.079,315.256 151.079,312.09 152.5,307.5 Z"/></g>
<g><path style="opacity:1" fill="#7c2ae2" d="M 307.5,310.5 C 310.044,310.104 312.211,310.771 314,312.5C 314.711,314.367 314.211,315.867 312.5,317C 310.744,317.202 309.078,317.702 307.5,318.5C 309.705,321.053 312.038,321.053 314.5,318.5C 315.282,320.329 314.616,321.829 312.5,323C 304.019,321.678 302.353,317.511 307.5,310.5 Z"/></g>
<g><path style="opacity:1" fill="#7c2be2" d="M 175.5,310.5 C 176.117,310.611 176.617,310.944 177,311.5C 177.448,316.53 178.114,321.53 179,326.5C 181.709,327.706 183.375,326.706 184,323.5C 184.87,319.176 185.703,314.842 186.5,310.5C 188.039,316.363 187.539,322.03 185,327.5C 182.042,331.205 179.376,331.205 177,327.5C 175.971,321.877 175.471,316.21 175.5,310.5 Z"/></g>
<g><path style="opacity:1" fill="#7d2de2" d="M 340.5,307.5 C 342.857,307.337 345.19,307.503 347.5,308C 350.016,310.854 349.683,313.521 346.5,316C 343.535,318.33 340.368,318.83 337,317.5C 334.487,312.886 335.654,309.553 340.5,307.5 Z"/></g>
<g><path style="opacity:1" fill="#f5eefd" d="M 341.5,309.5 C 343.167,309.5 344.833,309.5 346.5,309.5C 346.068,314.09 343.402,316.423 338.5,316.5C 337.909,313.325 338.909,310.991 341.5,309.5 Z"/></g>
<g><path style="opacity:1" fill="#7927e2" d="M 330.5,308.5 C 335.656,309.933 335.323,311.099 329.5,312C 326.833,314 326.833,316 329.5,318C 330.938,318.219 332.271,318.719 333.5,319.5C 327.368,321.204 324.868,318.871 326,312.5C 327.397,310.93 328.897,309.596 330.5,308.5 Z"/></g>
<g><path style="opacity:1" fill="#eee2fb" d="M 308.5,312.5 C 313.732,313.405 313.732,314.405 308.5,315.5C 307.438,314.575 307.438,313.575 308.5,312.5 Z"/></g>
<g><path style="opacity:1" fill="#f9f4fd" d="M 297.5,315.5 C 299.229,316.953 300.229,318.953 300.5,321.5C 298.604,322.466 296.604,322.799 294.5,322.5C 294.273,319.562 295.273,317.229 297.5,315.5 Z"/></g>
<g><path style="opacity:1" fill="#731ae1" d="M 245.5,316.5 C 247.89,316.913 250.223,317.579 252.5,318.5C 253.764,322.153 253.764,325.82 252.5,329.5C 251.679,326.553 251.179,323.553 251,320.5C 249.989,319.663 248.822,319.33 247.5,319.5C 247.905,323.048 247.405,326.381 246,329.5C 245.501,325.179 245.334,320.846 245.5,316.5 Z"/></g>
<g><path style="opacity:1" fill="#8133e3" d="M 190.5,318.5 C 192.89,318.913 195.223,319.579 197.5,320.5C 198.764,324.153 198.764,327.82 197.5,331.5C 196.679,328.553 196.179,325.553 196,322.5C 194.989,321.663 193.822,321.33 192.5,321.5C 192.664,324.187 192.497,326.854 192,329.5C 191.692,330.308 191.192,330.975 190.5,331.5C 189.46,327.182 189.46,322.849 190.5,318.5 Z"/></g>
<g><path style="opacity:1" fill="#8134e3" d="M 239.5,317.5 C 240.496,317.414 241.329,317.748 242,318.5C 242.361,321.525 242.861,324.525 243.5,327.5C 242.1,329.925 240.934,329.592 240,326.5C 237.847,328.444 235.347,328.944 232.5,328C 230.505,325.2 229.505,322.033 229.5,318.5C 230.5,318.5 231.5,318.5 232.5,318.5C 232.338,320.527 232.505,322.527 233,324.5C 235.435,327.228 237.435,326.894 239,323.5C 239.495,321.527 239.662,319.527 239.5,317.5 Z"/></g>
<g><path style="opacity:1" fill="#f2e7fc" d="M 261.5,318.5 C 262.75,318.577 263.583,319.244 264,320.5C 264.494,322.134 264.66,323.801 264.5,325.5C 256.917,325.324 255.917,322.99 261.5,318.5 Z"/></g>
<g><path style="opacity:1" fill="#7a28e2" d="M 273.5,313.5 C 275.527,313.338 277.527,313.505 279.5,314C 283.405,316.475 283.405,319.142 279.5,322C 276.535,324.33 273.368,324.83 270,323.5C 267.487,318.886 268.654,315.553 273.5,313.5 Z"/></g>
<g><path style="opacity:1" fill="#f3eafc" d="M 274.5,315.5 C 278.676,314.831 280.009,316.331 278.5,320C 276.726,320.97 274.893,321.804 273,322.5C 271.5,322.333 270.667,321.5 270.5,320C 271.344,317.993 272.677,316.493 274.5,315.5 Z"/></g>
<g><path style="opacity:1" fill="#7a27e2" d="M 212.5,317.5 C 215.044,317.104 217.211,317.771 219,319.5C 220.555,317.485 222.389,317.152 224.5,318.5C 227.325,321.434 228.325,324.767 227.5,328.5C 226.323,325.47 224.657,322.803 222.5,320.5C 220.976,322.483 219.976,324.816 219.5,327.5C 218.696,324.56 217.363,321.893 215.5,319.5C 214.833,319.833 214.167,320.167 213.5,320.5C 212.833,323.5 212.167,326.5 211.5,329.5C 210.016,325.221 210.35,321.221 212.5,317.5 Z"/></g>
</svg>
